<svg version="1.1" xmlns="http://www.w3.org/2000/svg" xmlns:xlink="http://www.w3.org/1999/xlink" width="800" height="800"><defs/><g transform="scale(2,2)"><g id="background-bb457d0e"><rect fill="white" stroke="none" x="0" y="0" width="400" height="400" class="dcg-svg-background"/></g><g id="graphpaper-bb457d0e"><g id="grid-bb457d0e"><g><path fill="none" stroke="rgb(0,0,0)" class="dcg-svg-minor-gridline" paint-order="fill stroke markers" d=" M 3.5 0 L 3.5 400" stroke-opacity="0.2" stroke-miterlimit="10" stroke-dasharray=""/><path fill="none" stroke="rgb(0,0,0)" class="dcg-svg-minor-gridline" paint-order="fill stroke markers" d=" M 27.5 0 L 27.5 400" stroke-opacity="0.2" stroke-miterlimit="10" stroke-dasharray=""/><path fill="none" stroke="rgb(0,0,0)" class="dcg-svg-minor-gridline" paint-order="fill stroke markers" d=" M 52.5 0 L 52.5 400" stroke-opacity="0.2" stroke-miterlimit="10" stroke-dasharray=""/><path fill="none" stroke="rgb(0,0,0)" class="dcg-svg-minor-gridline" paint-order="fill stroke markers" d=" M 77.5 0 L 77.5 400" stroke-opacity="0.2" stroke-miterlimit="10" stroke-dasharray=""/><path fill="none" stroke="rgb(0,0,0)" class="dcg-svg-minor-gridline" paint-order="fill stroke markers" d=" M 101.5 0 L 101.5 400" stroke-opacity="0.2" stroke-miterlimit="10" stroke-dasharray=""/><path fill="none" stroke="rgb(0,0,0)" class="dcg-svg-minor-gridline" paint-order="fill stroke markers" d=" M 126.5 0 L 126.5 400" stroke-opacity="0.2" stroke-miterlimit="10" stroke-dasharray=""/><path fill="none" stroke="rgb(0,0,0)" class="dcg-svg-minor-gridline" paint-order="fill stroke markers" d=" M 151.5 0 L 151.5 400" stroke-opacity="0.2" stroke-miterlimit="10" stroke-dasharray=""/><path fill="none" stroke="rgb(0,0,0)" class="dcg-svg-minor-gridline" paint-order="fill stroke markers" d=" M 175.5 0 L 175.5 400" stroke-opacity="0.2" stroke-miterlimit="10" stroke-dasharray=""/><path fill="none" stroke="rgb(0,0,0)" class="dcg-svg-minor-gridline" paint-order="fill stroke markers" d=" M 225.5 0 L 225.5 400" stroke-opacity="0.2" stroke-miterlimit="10" stroke-dasharray=""/><path fill="none" stroke="rgb(0,0,0)" class="dcg-svg-minor-gridline" paint-order="fill stroke markers" d=" M 249.5 0 L 249.5 400" stroke-opacity="0.2" stroke-miterlimit="10" stroke-dasharray=""/><path fill="none" stroke="rgb(0,0,0)" class="dcg-svg-minor-gridline" paint-order="fill stroke markers" d=" M 274.5 0 L 274.5 400" stroke-opacity="0.2" stroke-miterlimit="10" stroke-dasharray=""/><path fill="none" stroke="rgb(0,0,0)" class="dcg-svg-minor-gridline" paint-order="fill stroke markers" d=" M 299.5 0 L 299.5 400" stroke-opacity="0.2" stroke-miterlimit="10" stroke-dasharray=""/><path fill="none" stroke="rgb(0,0,0)" class="dcg-svg-minor-gridline" paint-order="fill stroke markers" d=" M 323.5 0 L 323.5 400" stroke-opacity="0.2" stroke-miterlimit="10" stroke-dasharray=""/><path fill="none" stroke="rgb(0,0,0)" class="dcg-svg-minor-gridline" paint-order="fill stroke markers" d=" M 348.5 0 L 348.5 400" stroke-opacity="0.2" stroke-miterlimit="10" stroke-dasharray=""/><path fill="none" stroke="rgb(0,0,0)" class="dcg-svg-minor-gridline" paint-order="fill stroke markers" d=" M 373.5 0 L 373.5 400" stroke-opacity="0.2" stroke-miterlimit="10" stroke-dasharray=""/><path fill="none" stroke="rgb(0,0,0)" class="dcg-svg-minor-gridline" paint-order="fill stroke markers" d=" M 397.5 0 L 397.5 400" stroke-opacity="0.2" stroke-miterlimit="10" stroke-dasharray=""/><path fill="none" stroke="rgb(0,0,0)" class="dcg-svg-minor-gridline" paint-order="fill stroke markers" d=" M 0 396.5 L 400 396.5" stroke-opacity="0.2" stroke-miterlimit="10" stroke-dasharray=""/><path fill="none" stroke="rgb(0,0,0)" class="dcg-svg-minor-gridline" paint-order="fill stroke markers" d=" M 0 371.5 L 400 371.5" stroke-opacity="0.2" stroke-miterlimit="10" stroke-dasharray=""/><path fill="none" stroke="rgb(0,0,0)" class="dcg-svg-minor-gridline" paint-order="fill stroke markers" d=" M 0 346.5 L 400 346.5" stroke-opacity="0.2" stroke-miterlimit="10" stroke-dasharray=""/><path fill="none" stroke="rgb(0,0,0)" class="dcg-svg-minor-gridline" paint-order="fill stroke markers" d=" M 0 322.5 L 400 322.5" stroke-opacity="0.2" stroke-miterlimit="10" stroke-dasharray=""/><path fill="none" stroke="rgb(0,0,0)" class="dcg-svg-minor-gridline" paint-order="fill stroke markers" d=" M 0 297.5 L 400 297.5" stroke-opacity="0.2" stroke-miterlimit="10" stroke-dasharray=""/><path fill="none" stroke="rgb(0,0,0)" class="dcg-svg-minor-gridline" paint-order="fill stroke markers" d=" M 0 272.5 L 400 272.5" stroke-opacity="0.2" stroke-miterlimit="10" stroke-dasharray=""/><path fill="none" stroke="rgb(0,0,0)" class="dcg-svg-minor-gridline" paint-order="fill stroke markers" d=" M 0 248.5 L 400 248.5" stroke-opacity="0.2" stroke-miterlimit="10" stroke-dasharray=""/><path fill="none" stroke="rgb(0,0,0)" class="dcg-svg-minor-gridline" paint-order="fill stroke markers" d=" M 0 223.5 L 400 223.5" stroke-opacity="0.2" stroke-miterlimit="10" stroke-dasharray=""/><path fill="none" stroke="rgb(0,0,0)" class="dcg-svg-minor-gridline" paint-order="fill stroke markers" d=" M 0 174.5 L 400 174.5" stroke-opacity="0.2" stroke-miterlimit="10" stroke-dasharray=""/><path fill="none" stroke="rgb(0,0,0)" class="dcg-svg-minor-gridline" paint-order="fill stroke markers" d=" M 0 149.5 L 400 149.5" stroke-opacity="0.2" stroke-miterlimit="10" stroke-dasharray=""/><path fill="none" stroke="rgb(0,0,0)" class="dcg-svg-minor-gridline" paint-order="fill stroke markers" d=" M 0 124.5 L 400 124.5" stroke-opacity="0.2" stroke-miterlimit="10" stroke-dasharray=""/><path fill="none" stroke="rgb(0,0,0)" class="dcg-svg-minor-gridline" paint-order="fill stroke markers" d=" M 0 100.5 L 400 100.5" stroke-opacity="0.2" stroke-miterlimit="10" stroke-dasharray=""/><path fill="none" stroke="rgb(0,0,0)" class="dcg-svg-minor-gridline" paint-order="fill stroke markers" d=" M 0 75.5 L 400 75.5" stroke-opacity="0.2" stroke-miterlimit="10" stroke-dasharray=""/><path fill="none" stroke="rgb(0,0,0)" class="dcg-svg-minor-gridline" paint-order="fill stroke markers" d=" M 0 50.5 L 400 50.5" stroke-opacity="0.2" stroke-miterlimit="10" stroke-dasharray=""/><path fill="none" stroke="rgb(0,0,0)" class="dcg-svg-minor-gridline" paint-order="fill stroke markers" d=" M 0 26.5 L 400 26.5" stroke-opacity="0.2" stroke-miterlimit="10" stroke-dasharray=""/><path fill="none" stroke="rgb(0,0,0)" class="dcg-svg-minor-gridline" paint-order="fill stroke markers" d=" M 0 1.5 L 400 1.5" stroke-opacity="0.2" stroke-miterlimit="10" stroke-dasharray=""/><path fill="none" stroke="rgb(0,0,0)" class="dcg-svg-major-gridline" paint-order="fill stroke markers" d=" M 77.5 0 L 77.5 400" stroke-opacity="0.2500000000000001" stroke-miterlimit="10" stroke-dasharray=""/><path fill="none" stroke="rgb(0,0,0)" class="dcg-svg-major-gridline" paint-order="fill stroke markers" d=" M 323.5 0 L 323.5 400" stroke-opacity="0.2500000000000001" stroke-miterlimit="10" stroke-dasharray=""/><path fill="none" stroke="rgb(0,0,0)" class="dcg-svg-major-gridline" paint-order="fill stroke markers" d=" M 0 322.5 L 400 322.5" stroke-opacity="0.2500000000000001" stroke-miterlimit="10" stroke-dasharray=""/><path fill="none" stroke="rgb(0,0,0)" class="dcg-svg-major-gridline" paint-order="fill stroke markers" d=" M 0 75.5 L 400 75.5" stroke-opacity="0.2500000000000001" stroke-miterlimit="10" stroke-dasharray=""/></g></g><g id="axis-bb457d0e"><g id="yaxis-bb457d0e"><title>Y axis</title><g><path fill="none" stroke="rgb(0,0,0)" class="dcg-svg-axis-line" paint-order="fill stroke markers" d=" M 200 0 L 200 400" stroke-opacity="0.9" stroke-miterlimit="10" stroke-width="1.5" stroke-dasharray=""/></g></g><g id="xaxis-bb457d0e"><title>X axis</title><g><path fill="none" stroke="rgb(0,0,0)" class="dcg-svg-axis-line" paint-order="fill stroke markers" d=" M 0 199 L 400 199" stroke-opacity="0.9" stroke-miterlimit="10" stroke-width="1.5" stroke-dasharray=""/></g></g><g><g class="dcg-svg-axis-value"><text fill="none" stroke="#ffffff" font-family="Arial" font-size="14px" font-style="normal" font-weight="normal" text-decoration="normal" x="191.54763715706542" y="214.72274484629452" text-anchor="middle" stroke-miterlimit="2" stroke-width="3" stroke-dasharray="">0</text><text fill="#000000" stroke="none" font-family="Arial" font-size="14px" font-style="normal" font-weight="normal" text-decoration="normal" x="191.54763715706542" y="214.72274484629452" text-anchor="middle">0</text></g><g class="dcg-svg-axis-value"><text fill="none" stroke="#ffffff" font-family="Arial" font-size="14px" font-style="normal" font-weight="normal" text-decoration="normal" x="74.82807864411892" y="214.72274484629452" text-anchor="middle" stroke-miterlimit="2" stroke-width="3" stroke-dasharray="">-1</text><text fill="#000000" stroke="none" font-family="Arial" font-size="14px" font-style="normal" font-weight="normal" text-decoration="normal" x="74.82807864411892" y="214.72274484629452" text-anchor="middle">-1</text></g><g class="dcg-svg-axis-value"><text fill="none" stroke="#ffffff" font-family="Arial" font-size="14px" font-style="normal" font-weight="normal" text-decoration="normal" x="323.7222737950119" y="214.72274484629452" text-anchor="middle" stroke-miterlimit="2" stroke-width="3" stroke-dasharray="">1</text><text fill="#000000" stroke="none" font-family="Arial" font-size="14px" font-style="normal" font-weight="normal" text-decoration="normal" x="323.7222737950119" y="214.72274484629452" text-anchor="middle">1</text></g><g class="dcg-svg-axis-value"><text fill="none" stroke="#ffffff" font-family="Arial" font-size="14px" font-style="normal" font-weight="normal" text-decoration="normal" x="189.21658246956542" y="326.00431507799107" text-anchor="middle" stroke-miterlimit="2" stroke-width="3" stroke-dasharray="">-1</text><text fill="#000000" stroke="none" font-family="Arial" font-size="14px" font-style="normal" font-weight="normal" text-decoration="normal" x="189.21658246956542" y="326.00431507799107" text-anchor="middle">-1</text></g><g class="dcg-svg-axis-value"><text fill="none" stroke="#ffffff" font-family="Arial" font-size="14px" font-style="normal" font-weight="normal" text-decoration="normal" x="191.54763715706542" y="79.44117461459797" text-anchor="middle" stroke-miterlimit="2" stroke-width="3" stroke-dasharray="">1</text><text fill="#000000" stroke="none" font-family="Arial" font-size="14px" font-style="normal" font-weight="normal" text-decoration="normal" x="191.54763715706542" y="79.44117461459797" text-anchor="middle">1</text></g></g></g></g><g id="expressions-bb457d0e"><g id="sketch-bb457d0e"><title>Expression 1</title><g><path fill="none" stroke="#c74440" class="dcg-svg-curve" paint-order="fill stroke markers" d=" M 323.7222737950119 198.91474484629452 L 323.7222737950119 198.91474484629452 L 323.63467886645117 194.26823994442552 L 323.3720185579556 189.62833798027333 L 322.9346661241958 185.00163250841902 L 322.32324306691186 180.39469833050592 L 321.53861825172436 175.81408215208688 L 320.40581598731774 170.51197456082411 L 319.04098552279095 165.2648016379379 L 317.44676661856886 160.08271210137138 L 315.62624270228696 154.975728789296 L 313.58293490503945 149.95372927463268 L 311.32079525105166 145.02642676053566 L 308.8441990139487 140.2033512937885 L 306.15793625440506 135.4938313324485 L 302.83787024418314 130.26224442188666 L 299.2591401040836 125.20407968560768 L 295.4307860170311 120.33211448672321 L 291.3624787377046 115.6586558321536 L 287.0644951633717 111.19550928406024 L 282.54769237355447 106.95394913797104 L 277.8234802041041 102.94468994293139 L 272.9037924249654 99.17785943562338 L 267.80105659443814 95.66297295682406 L 263.19612860998706 92.80111619283498 L 258.4698234348916 90.14449704974415 L 253.63128236082264 87.69825377604494 L 248.6898637583426 85.46711772581511 L 243.6551249765941 83.45540420765978 L 238.53680385813828 81.66700413834089 L 233.34479990469484 80.10537651723575 L 228.0891551302126 78.77354173618049 L 222.78003463830257 77.67407573763757 L 217.42770696159948 76.80910503248651 L 212.04252420107838 76.18030258707411 L 206.6349020037384 75.7888845874789 L 201.21529941738135 75.63560808724841 L 195.79419866144642 75.72076954315871 L 190.38208485302854 76.04420424182824 L 184.989425727292 76.60528661829508 L 179.62665139150326 77.4029314659412 L 174.30413415184069 78.43559603542397 L 169.03216845199927 79.70128301855482 L 163.820950962392 81.19754441135429 L 158.68056085845672 82.92148624881152 L 153.62094032621434 84.8697742021906 L 148.65187533278194 87.03864002805808 L 143.78297669903418 89.42388885655795 L 139.02366151101987 92.02090730483805 L 134.38313490608738 94.82467239993521 L 129.8703722689466 97.82976129386101 L 125.4941018721018 101.03036175209864 L 120.6706285932541 104.9196348774056 L 116.04866144686319 109.04634780813835 L 111.6398759230721 113.40007610928473 L 107.45540899674337 117.96982188530487 L 103.5058309944943 122.7440415617696 L 99.80111889313442 127.71067504543139 L 96.35063111695617 132.85717618906642 L 93.16308389754293 138.17054448413168 L 90.59602017468737 142.94608316813054 L 88.24141042002681 147.82987255577086 L 86.10380875644185 152.81246676034039 L 84.18734958481411 157.8842287937027 L 82.49573958755501 163.03534920549117 L 81.03225055939748 168.2558650558678 L 79.79971307931766 173.53567918515012 L 78.80051103582537 178.86457974303744 L 78.13124533531604 183.46346701027107 L 77.63578806757809 188.0843113887855 L 77.31484330449986 192.72054640587154 L 77.16886712615135 197.36558371788067 L 77.1980669726697 202.0128224726216 L 77.40240134947517 206.6556586895323 L 77.78157988623741 211.28749464429805 L 78.33506374950747 215.90174824457864 L 79.06206640842966 220.49186238352138 L 79.96155475244493 225.05131425776932 L 81.22724173557579 230.32327995761074 L 82.72350312837526 235.534497447218 L 84.44744496583246 240.67488755115326 L 86.39573291921155 245.73450808339567 L 88.56459874507901 250.70357307682798 L 90.94984757357886 255.57247171057574 L 93.546866021859 260.3317868985901 L 96.35063111695612 264.9723135035225 L 99.8011188931344 270.11881464715765 L 103.50583099449429 275.08544813081943 L 107.45540899674336 279.85966780728415 L 111.63987592307207 284.42941358330427 L 116.04866144686316 288.7831418844507 L 120.67062859325407 292.9098548151834 L 125.49410187210172 296.79912794049034 L 130.50689677128452 300.44113661891504 L 135.0384517365043 303.41781185762727 L 139.6965032011526 306.19236451206706 L 144.47204188515147 308.75942823492267 L 149.3558312727918 311.11403798958315 L 154.33842547736128 313.2516396531681 L 159.41018751072357 315.16809882479583 L 164.56130792251204 316.859708822055 L 169.78182377288863 318.3231978502125 L 175.06163790217096 319.55573533029235 L 180.39053846005828 320.55493737378464 L 185.75821865668416 321.3188713933978 L 191.15429669729426 321.8460598409347 L 196.56833586199426 322.1354830650639 L 201.98986469172925 322.1865812834586 L 207.40839724145368 321.9992556654888 L 212.81345336131895 321.5738685233726 L 218.19457896665244 320.9112426114169 L 223.541366257523 320.0126595347035 L 228.84347384878586 318.8798572702969 L 234.09064677167208 317.51502680577005 L 239.27273630823856 315.92080790154796 L 244.37971962031395 314.1002839852661 L 249.40171913497716 312.05697618801867 L 254.32902164907418 309.7948365340309 L 259.15209711582133 307.3182402969279 L 263.86161707716144 304.63197753738416 L 268.4484727062196 301.7412438385202 L 272.9037924249654 298.6516302569657 L 277.82348020410404 294.88479974965776 L 282.54769237355447 290.87554055461806 L 287.0644951633717 286.6339804085288 L 291.3624787377046 282.1708338604355 L 295.4307860170311 277.49737520586586 L 299.2591401040836 272.6254100069814 L 302.83787024418314 267.5672452707024 L 306.157936254405 262.3356583601406 L 309.21095135986576 256.9438647178707 L 311.657194633565 252.10532364380174 L 313.8883306837948 247.1639050413217 L 315.9000442019501 242.12916625957325 L 317.688444271269 237.01084514111741 L 319.25007189237414 231.81884118767397 L 320.5819066734294 226.56319641319175 L 321.6813726719723 221.25407592128172 L 322.43720132843777 216.6686202496316 L 323.01966628607437 212.0579353495623 L 323.4279398303056 207.42857325660788 L 323.66144178208475 202.78711254761572 L 323.7222737950119 198.91474484629455" stroke-linecap="round" stroke-linejoin="round" stroke-miterlimit="10" stroke-width="2.5" stroke-dasharray=""/></g></g><g id="sketch-bb457d0e"><title/><path fill="#348543" stroke="none" paint-order="stroke fill markers" d="" fill-opacity="0.4"/><g><path fill="none" stroke="#348543" class="dcg-svg-curve" paint-order="fill stroke markers" d=" M 200.44070356331542 198.91474484629452 L 200.44070356331542 198.91474484629452 L 323.7222737950119 198.91474484629452" stroke-linecap="round" stroke-linejoin="round" stroke-miterlimit="10" stroke-width="5" stroke-dasharray=""/></g><path fill="#348543" stroke="none" class="dcg-svg-point" paint-order="stroke fill markers" d=" M 204.19070356331542 198.91474484629452 A 3.75 3.75 0 1 1 204.19070168831558 198.91099484691952 Z"/><path fill="#348543" stroke="none" class="dcg-svg-point" paint-order="stroke fill markers" d=" M 327.4722737950119 198.91474484629452 A 3.75 3.75 0 1 1 327.4722719200121 198.91099484691952 Z"/></g><g id="sketch-bb457d0e"><title/><path fill="#348543" stroke="none" paint-order="stroke fill markers" d="" fill-opacity="0.4"/><g><path fill="none" stroke="#348543" class="dcg-svg-curve" paint-order="fill stroke markers" d=" M 200.44070356331542 198.91474484629452 L 200.44070356331542 198.91474484629452 L 138.7999184474672 92.14977320720988" stroke-linecap="round" stroke-linejoin="round" stroke-miterlimit="10" stroke-width="5" stroke-dasharray=""/></g><path fill="#348543" stroke="none" class="dcg-svg-point" paint-order="stroke fill markers" d=" M 204.19070356331542 198.91474484629452 A 3.75 3.75 0 1 1 204.19070168831558 198.91099484691952 Z"/><path fill="#348543" stroke="none" class="dcg-svg-point" paint-order="stroke fill markers" d=" M 142.5499184474672 92.14977320720988 A 3.75 3.75 0 1 1 142.54991657246737 92.14602320783487 Z"/></g><g id="sketch-bb457d0e"><title/><path fill="#348543" stroke="none" paint-order="stroke fill markers" d="" fill-opacity="0.4"/><g><path fill="none" stroke="#348543" class="dcg-svg-curve" paint-order="fill stroke markers" d=" M 200.44070356331542 198.91474484629452 L 200.44070356331542 198.91474484629452 L 138.79991844746712 305.6797164853791" stroke-linecap="round" stroke-linejoin="round" stroke-miterlimit="10" stroke-width="5" stroke-dasharray=""/></g><path fill="#348543" stroke="none" class="dcg-svg-point" paint-order="stroke fill markers" d=" M 204.19070356331542 198.91474484629452 A 3.75 3.75 0 1 1 204.19070168831558 198.91099484691952 Z"/><path fill="#348543" stroke="none" class="dcg-svg-point" paint-order="stroke fill markers" d=" M 142.54991844746712 305.6797164853791 A 3.75 3.75 0 1 1 142.54991657246728 305.67596648600414 Z"/></g><g id="sketch-bb457d0e"><title>A</title><path fill="#348543" stroke="none" class="dcg-svg-point" paint-order="stroke fill markers" d=" M 327.4722737950119 198.91474484629452 A 3.75 3.75 0 1 1 327.4722719200121 198.91099484691952 Z"/></g><g id="sketch-bb457d0e"><title>B</title><path fill="#348543" stroke="none" class="dcg-svg-point" paint-order="stroke fill markers" d=" M 142.5499184474672 92.14977320720988 A 3.75 3.75 0 1 1 142.54991657246737 92.14602320783487 Z"/></g><g id="sketch-bb457d0e"><title>C</title><path fill="#348543" stroke="none" class="dcg-svg-point" paint-order="stroke fill markers" d=" M 142.54991844746712 305.6797164853791 A 3.75 3.75 0 1 1 142.54991657246728 305.67596648600414 Z"/></g></g><g id="labels-bb457d0e"><g transform="rotate(0,0,0) translate(309,176)"><g class="dcg-svg-label"><text fill="none" stroke="#FFF" font-family="arial, sans-serif" font-size="15.4px" font-style="normal" font-weight="400" text-decoration="normal" x="0" y="13.631658505249023" text-anchor="start" stroke-linecap="round" stroke-linejoin="round" stroke-miterlimit="2" stroke-width="3" stroke-dasharray="">A</text><text fill="rgb(52, 133, 67)" stroke="none" font-family="arial, sans-serif" font-size="15.4px" font-style="normal" font-weight="400" text-decoration="normal" x="0" y="13.631658505249023" text-anchor="start">A</text></g></g><g transform="rotate(0,0,0) translate(134,67)"><g class="dcg-svg-label"><text fill="none" stroke="#FFF" font-family="arial, sans-serif" font-size="15.4px" font-style="normal" font-weight="400" text-decoration="normal" x="0" y="13.631658505249023" text-anchor="start" stroke-linecap="round" stroke-linejoin="round" stroke-miterlimit="2" stroke-width="3" stroke-dasharray="">B</text><text fill="rgb(52, 133, 67)" stroke="none" font-family="arial, sans-serif" font-size="15.4px" font-style="normal" font-weight="400" text-decoration="normal" x="0" y="13.631658505249023" text-anchor="start">B</text></g></g><g transform="rotate(0,0,0) translate(133.5,313)"><g class="dcg-svg-label"><text fill="none" stroke="#FFF" font-family="arial, sans-serif" font-size="15.4px" font-style="normal" font-weight="400" text-decoration="normal" x="0" y="13.631658505249023" text-anchor="start" stroke-linecap="round" stroke-linejoin="round" stroke-miterlimit="2" stroke-width="3" stroke-dasharray="">C</text><text fill="rgb(52, 133, 67)" stroke="none" font-family="arial, sans-serif" font-size="15.4px" font-style="normal" font-weight="400" text-decoration="normal" x="0" y="13.631658505249023" text-anchor="start">C</text></g></g></g><g id="labels-bb457d0e"/></g></svg>