<svg version="1.1" xmlns="http://www.w3.org/2000/svg" xmlns:xlink="http://www.w3.org/1999/xlink" width="800" height="800"><defs/><g transform="scale(2,2)"><g id="background-929131ba"><rect fill="white" stroke="none" x="0" y="0" width="400" height="400" class="dcg-svg-background"/></g><g id="graphpaper-929131ba"><g id="grid-929131ba"><g><path fill="none" stroke="rgb(0,0,0)" class="dcg-svg-minor-gridline" paint-order="fill stroke markers" d=" M 14.5 0 L 14.5 400" stroke-opacity="0.2" stroke-miterlimit="10" stroke-dasharray=""/><path fill="none" stroke="rgb(0,0,0)" class="dcg-svg-minor-gridline" paint-order="fill stroke markers" d=" M 42.5 0 L 42.5 400" stroke-opacity="0.2" stroke-miterlimit="10" stroke-dasharray=""/><path fill="none" stroke="rgb(0,0,0)" class="dcg-svg-minor-gridline" paint-order="fill stroke markers" d=" M 70.5 0 L 70.5 400" stroke-opacity="0.2" stroke-miterlimit="10" stroke-dasharray=""/><path fill="none" stroke="rgb(0,0,0)" class="dcg-svg-minor-gridline" paint-order="fill stroke markers" d=" M 98.5 0 L 98.5 400" stroke-opacity="0.2" stroke-miterlimit="10" stroke-dasharray=""/><path fill="none" stroke="rgb(0,0,0)" class="dcg-svg-minor-gridline" paint-order="fill stroke markers" d=" M 126.5 0 L 126.5 400" stroke-opacity="0.2" stroke-miterlimit="10" stroke-dasharray=""/><path fill="none" stroke="rgb(0,0,0)" class="dcg-svg-minor-gridline" paint-order="fill stroke markers" d=" M 181.5 0 L 181.5 400" stroke-opacity="0.2" stroke-miterlimit="10" stroke-dasharray=""/><path fill="none" stroke="rgb(0,0,0)" class="dcg-svg-minor-gridline" paint-order="fill stroke markers" d=" M 209.5 0 L 209.5 400" stroke-opacity="0.2" stroke-miterlimit="10" stroke-dasharray=""/><path fill="none" stroke="rgb(0,0,0)" class="dcg-svg-minor-gridline" paint-order="fill stroke markers" d=" M 237.5 0 L 237.5 400" stroke-opacity="0.2" stroke-miterlimit="10" stroke-dasharray=""/><path fill="none" stroke="rgb(0,0,0)" class="dcg-svg-minor-gridline" paint-order="fill stroke markers" d=" M 265.5 0 L 265.5 400" stroke-opacity="0.2" stroke-miterlimit="10" stroke-dasharray=""/><path fill="none" stroke="rgb(0,0,0)" class="dcg-svg-minor-gridline" paint-order="fill stroke markers" d=" M 292.5 0 L 292.5 400" stroke-opacity="0.2" stroke-miterlimit="10" stroke-dasharray=""/><path fill="none" stroke="rgb(0,0,0)" class="dcg-svg-minor-gridline" paint-order="fill stroke markers" d=" M 320.5 0 L 320.5 400" stroke-opacity="0.2" stroke-miterlimit="10" stroke-dasharray=""/><path fill="none" stroke="rgb(0,0,0)" class="dcg-svg-minor-gridline" paint-order="fill stroke markers" d=" M 348.5 0 L 348.5 400" stroke-opacity="0.2" stroke-miterlimit="10" stroke-dasharray=""/><path fill="none" stroke="rgb(0,0,0)" class="dcg-svg-minor-gridline" paint-order="fill stroke markers" d=" M 376.5 0 L 376.5 400" stroke-opacity="0.2" stroke-miterlimit="10" stroke-dasharray=""/><path fill="none" stroke="rgb(0,0,0)" class="dcg-svg-minor-gridline" paint-order="fill stroke markers" d=" M 0 394.5 L 400 394.5" stroke-opacity="0.2" stroke-miterlimit="10" stroke-dasharray=""/><path fill="none" stroke="rgb(0,0,0)" class="dcg-svg-minor-gridline" paint-order="fill stroke markers" d=" M 0 369.5 L 400 369.5" stroke-opacity="0.2" stroke-miterlimit="10" stroke-dasharray=""/><path fill="none" stroke="rgb(0,0,0)" class="dcg-svg-minor-gridline" paint-order="fill stroke markers" d=" M 0 344.5 L 400 344.5" stroke-opacity="0.2" stroke-miterlimit="10" stroke-dasharray=""/><path fill="none" stroke="rgb(0,0,0)" class="dcg-svg-minor-gridline" paint-order="fill stroke markers" d=" M 0 318.5 L 400 318.5" stroke-opacity="0.2" stroke-miterlimit="10" stroke-dasharray=""/><path fill="none" stroke="rgb(0,0,0)" class="dcg-svg-minor-gridline" paint-order="fill stroke markers" d=" M 0 293.5 L 400 293.5" stroke-opacity="0.2" stroke-miterlimit="10" stroke-dasharray=""/><path fill="none" stroke="rgb(0,0,0)" class="dcg-svg-minor-gridline" paint-order="fill stroke markers" d=" M 0 268.5 L 400 268.5" stroke-opacity="0.2" stroke-miterlimit="10" stroke-dasharray=""/><path fill="none" stroke="rgb(0,0,0)" class="dcg-svg-minor-gridline" paint-order="fill stroke markers" d=" M 0 242.5 L 400 242.5" stroke-opacity="0.2" stroke-miterlimit="10" stroke-dasharray=""/><path fill="none" stroke="rgb(0,0,0)" class="dcg-svg-minor-gridline" paint-order="fill stroke markers" d=" M 0 217.5 L 400 217.5" stroke-opacity="0.2" stroke-miterlimit="10" stroke-dasharray=""/><path fill="none" stroke="rgb(0,0,0)" class="dcg-svg-minor-gridline" paint-order="fill stroke markers" d=" M 0 167.5 L 400 167.5" stroke-opacity="0.2" stroke-miterlimit="10" stroke-dasharray=""/><path fill="none" stroke="rgb(0,0,0)" class="dcg-svg-minor-gridline" paint-order="fill stroke markers" d=" M 0 141.5 L 400 141.5" stroke-opacity="0.2" stroke-miterlimit="10" stroke-dasharray=""/><path fill="none" stroke="rgb(0,0,0)" class="dcg-svg-minor-gridline" paint-order="fill stroke markers" d=" M 0 116.5 L 400 116.5" stroke-opacity="0.2" stroke-miterlimit="10" stroke-dasharray=""/><path fill="none" stroke="rgb(0,0,0)" class="dcg-svg-minor-gridline" paint-order="fill stroke markers" d=" M 0 91.5 L 400 91.5" stroke-opacity="0.2" stroke-miterlimit="10" stroke-dasharray=""/><path fill="none" stroke="rgb(0,0,0)" class="dcg-svg-minor-gridline" paint-order="fill stroke markers" d=" M 0 65.5 L 400 65.5" stroke-opacity="0.2" stroke-miterlimit="10" stroke-dasharray=""/><path fill="none" stroke="rgb(0,0,0)" class="dcg-svg-minor-gridline" paint-order="fill stroke markers" d=" M 0 40.5 L 400 40.5" stroke-opacity="0.2" stroke-miterlimit="10" stroke-dasharray=""/><path fill="none" stroke="rgb(0,0,0)" class="dcg-svg-minor-gridline" paint-order="fill stroke markers" d=" M 0 15.5 L 400 15.5" stroke-opacity="0.2" stroke-miterlimit="10" stroke-dasharray=""/><path fill="none" stroke="rgb(0,0,0)" class="dcg-svg-major-gridline" paint-order="fill stroke markers" d=" M 14.5 0 L 14.5 400" stroke-opacity="0.2500000000000001" stroke-miterlimit="10" stroke-dasharray=""/><path fill="none" stroke="rgb(0,0,0)" class="dcg-svg-major-gridline" paint-order="fill stroke markers" d=" M 292.5 0 L 292.5 400" stroke-opacity="0.2500000000000001" stroke-miterlimit="10" stroke-dasharray=""/><path fill="none" stroke="rgb(0,0,0)" class="dcg-svg-major-gridline" paint-order="fill stroke markers" d=" M 0 318.5 L 400 318.5" stroke-opacity="0.2500000000000001" stroke-miterlimit="10" stroke-dasharray=""/><path fill="none" stroke="rgb(0,0,0)" class="dcg-svg-major-gridline" paint-order="fill stroke markers" d=" M 0 65.5 L 400 65.5" stroke-opacity="0.2500000000000001" stroke-miterlimit="10" stroke-dasharray=""/></g></g><g id="axis-929131ba"><g id="yaxis-929131ba"><title>Y axis</title><g><path fill="none" stroke="rgb(0,0,0)" class="dcg-svg-axis-line" paint-order="fill stroke markers" d=" M 154 3 L 154 400" stroke-opacity="0.9" stroke-miterlimit="10" stroke-width="1.5" stroke-dasharray=""/><g class="dcg-svg-axis-line"><path fill="rgb(0,0,0)" stroke="rgb(0,0,0)" class="dcg-svg-axis-line" paint-order="stroke fill markers" d=" M 154 1.5 L 157.10582854123024 13.09110991546882 L 150.89417145876976 13.09110991546882 L 154 1.5 L 157.10582854123024 13.09110991546882" stroke-opacity="0.9" stroke-linejoin="round" stroke-miterlimit="10" stroke-width="1.5" stroke-dasharray="" fill-opacity="0.9"/></g></g></g><g id="xaxis-929131ba"><title>X axis</title><g><path fill="none" stroke="rgb(0,0,0)" class="dcg-svg-axis-line" paint-order="fill stroke markers" d=" M 0 192 L 397 192" stroke-opacity="0.9" stroke-miterlimit="10" stroke-width="1.5" stroke-dasharray=""/><g class="dcg-svg-axis-line"><path fill="rgb(0,0,0)" stroke="rgb(0,0,0)" class="dcg-svg-axis-line" paint-order="stroke fill markers" d=" M 398.5 192 L 386.9088900845312 195.10582854123027 L 386.9088900845312 188.89417145876976 L 398.5 192 L 386.9088900845312 195.10582854123027" stroke-opacity="0.9" stroke-linejoin="round" stroke-miterlimit="10" stroke-width="1.5" stroke-dasharray="" fill-opacity="0.9"/></g></g></g><g><g class="dcg-svg-axis-value"><text fill="none" stroke="#ffffff" font-family="Arial" font-size="14px" font-style="normal" font-weight="normal" text-decoration="normal" x="145.05517985117777" y="208.1466366372134" text-anchor="middle" stroke-miterlimit="2" stroke-width="3" stroke-dasharray="">0</text><text fill="#000000" stroke="none" font-family="Arial" font-size="14px" font-style="normal" font-weight="normal" text-decoration="normal" x="145.05517985117777" y="208.1466366372134" text-anchor="middle">0</text></g><g class="dcg-svg-axis-value"><text fill="none" stroke="#ffffff" font-family="Arial" font-size="14px" font-style="normal" font-weight="normal" text-decoration="normal" x="12.603888283254605" y="208.1466366372134" text-anchor="middle" stroke-miterlimit="2" stroke-width="3" stroke-dasharray="">-5</text><text fill="#000000" stroke="none" font-family="Arial" font-size="14px" font-style="normal" font-weight="normal" text-decoration="normal" x="12.603888283254605" y="208.1466366372134" text-anchor="middle">-5</text></g><g class="dcg-svg-axis-value"><text fill="none" stroke="#ffffff" font-family="Arial" font-size="14px" font-style="normal" font-weight="normal" text-decoration="normal" x="292.96154954410093" y="208.1466366372134" text-anchor="middle" stroke-miterlimit="2" stroke-width="3" stroke-dasharray="">5</text><text fill="#000000" stroke="none" font-family="Arial" font-size="14px" font-style="normal" font-weight="normal" text-decoration="normal" x="292.96154954410093" y="208.1466366372134" text-anchor="middle">5</text></g><g class="dcg-svg-axis-value"><text fill="none" stroke="#ffffff" font-family="Arial" font-size="14px" font-style="normal" font-weight="normal" text-decoration="normal" x="142.72412516367777" y="322.74519649651097" text-anchor="middle" stroke-miterlimit="2" stroke-width="3" stroke-dasharray="">-5</text><text fill="#000000" stroke="none" font-family="Arial" font-size="14px" font-style="normal" font-weight="normal" text-decoration="normal" x="142.72412516367777" y="322.74519649651097" text-anchor="middle">-5</text></g><g class="dcg-svg-axis-value"><text fill="none" stroke="#ffffff" font-family="Arial" font-size="14px" font-style="normal" font-weight="normal" text-decoration="normal" x="145.05517985117777" y="69.5480767779158" text-anchor="middle" stroke-miterlimit="2" stroke-width="3" stroke-dasharray="">5</text><text fill="#000000" stroke="none" font-family="Arial" font-size="14px" font-style="normal" font-weight="normal" text-decoration="normal" x="145.05517985117777" y="69.5480767779158" text-anchor="middle">5</text></g></g></g></g><g id="expressions-929131ba"><g id="sketch-929131ba"><title>Expression 1</title><path fill="#c74440" stroke="none" paint-order="stroke fill markers" d="" fill-opacity="0.4"/><g><path fill="none" stroke="#c74440" class="dcg-svg-curve" paint-order="fill stroke markers" d=" M 100.76366972197327 192.33863770435946 L 100.76366972197327 192.33863770435946 L 100.87890624999997 197.73374247719045 L 101.26953125 203.6008234201391 L 101.85546875 208.79272979233642 L 102.63671875 213.7309514087626 L 103.61328125 218.48009816408654 L 104.68749999999997 222.69943985444027 L 105.95703125 226.8412007046757 L 107.421875 230.85132150240176 L 108.984375 234.4796550173097 L 110.7421875 237.96354816179863 L 112.6953125 241.26093743891798 L 114.84375 244.3371561248626 L 117.1875 247.163268661245 L 119.53125 249.5355959777617 L 121.97265625 251.60387748978752 L 124.51171875 253.38559547852157 L 127.1484375 254.89603004507882 L 129.8828125 256.1497465008978 L 132.71484375 257.161793369703 L 135.83984375 257.9928973618683 L 139.16015625 258.60434543387544 L 142.96875 259.0329550254579 L 147.55859375 259.27018913205865 L 154.4921875 259.32833361498984 L 162.3046875 259.45809465453965 L 166.796875 259.79891539259484 L 170.60546875 260.34954434249516 L 174.0234375 261.1060654306582 L 177.24609375 262.08707293818566 L 180.37109375 263.31688609188717 L 183.3984375 264.79247201454626 L 186.42578125 266.56472958529594 L 189.45312499999997 268.6455275513629 L 192.578125 271.1245416670477 L 195.80078125 274.0361803060331 L 199.21875 277.51622604821074 L 202.83203125 281.62589557146464 L 206.640625 286.42257101562166 L 210.74218749999997 292.0998081289133 L 214.94140625 298.43416636985603 L 219.3359375 305.5960355015144 L 223.92578125 313.62169039109517 L 228.7109375 322.5431517789087 L 233.69140625 332.3890767296014 L 238.8671875 343.1856518772105 L 244.3359375 355.17654899681366 L 250 368.18604768483755 L 255.95703125 382.4754501873773 L 262.109375 397.8470645514578 L 265.0570123862747 405.5" stroke-linecap="round" stroke-linejoin="round" stroke-miterlimit="10" stroke-width="2.5" stroke-dasharray=""/></g><path fill="#c74440" stroke="none" paint-order="stroke fill markers" d="" fill-opacity="0.4"/><g><path fill="none" stroke="#c74440" class="dcg-svg-curve" paint-order="fill stroke markers" d=" M 100.76366972197327 192.33863557006734 L 100.76366972197327 192.33863557006734 L 100.87890624999997 186.94353079723635 L 101.26953125 181.0764498542877 L 101.85546875 175.88454348209038 L 102.63671875 170.9463218656642 L 103.61328125 166.19717511034025 L 104.68749999999997 161.97783341998652 L 105.95703125 157.83607256975108 L 107.421875 153.82595177202504 L 108.984375 150.19761825711709 L 110.7421875 146.71372511262817 L 112.6953125 143.41633583550885 L 114.84375 140.3401171495642 L 117.1875 137.51400461318178 L 119.53125 135.1416772966651 L 121.97265625 133.07339578463927 L 124.51171875 131.2916777959052 L 127.1484375 129.781243229348 L 129.8828125 128.52752677352902 L 132.71484375 127.51547990472378 L 135.83984375 126.68437591255847 L 139.16015625 126.07292784055139 L 142.96875 125.6443182489689 L 147.55859375 125.40708414236812 L 154.4921875 125.34893965943695 L 162.3046875 125.21917861988717 L 166.796875 124.87835788183196 L 170.60546875 124.32772893193166 L 174.0234375 123.57120784376863 L 177.24609375 122.59020033624115 L 180.37109375 121.36038718253963 L 183.3984375 119.88480125988052 L 186.42578125 118.11254368913083 L 189.45312499999997 116.03174572306392 L 192.578125 113.55273160737909 L 195.80078125 110.64109296839369 L 199.21875 107.16104722621604 L 202.83203125 103.05137770296214 L 206.640625 98.25470225880515 L 210.74218749999997 92.57746514551351 L 214.94140625 86.24310690457074 L 219.3359375 79.0812377729124 L 223.92578125 71.05558288333162 L 228.7109375 62.134121495518144 L 233.69140625 52.28819654482541 L 238.8671875 41.49162139721625 L 244.3359375 29.50072427761316 L 250 16.49122558958925 L 255.95703125 2.201823087049462 L 259.0396133400074 -5.5" stroke-linecap="round" stroke-linejoin="round" stroke-miterlimit="10" stroke-width="2.5" stroke-dasharray=""/></g></g><g id="sketch-929131ba"><title>A</title><path fill="#2d70b3" stroke="none" class="dcg-svg-point" paint-order="stroke fill markers" d=" M 129.89558560009314 130.31825535926322 A 3.75 3.75 0 1 1 129.8955837250933 130.31450535988822 Z"/></g><g id="sketch-929131ba"><title>Expression 3</title><path fill="#2d70b3" stroke="none" paint-order="stroke fill markers" d="" fill-opacity="0.4"/><g><path fill="none" stroke="#2d70b3" class="dcg-svg-curve" paint-order="fill stroke markers" d=" M 0 200.66732619257212 L 0 200.66732619257212 L 369.6864476830244 -5.5" stroke-linecap="round" stroke-linejoin="round" stroke-miterlimit="10" stroke-width="2.5" stroke-dasharray=""/></g></g><g id="sketch-929131ba"><title>Expression 4</title><path fill="#348543" stroke="none" paint-order="stroke fill markers" d="" fill-opacity="0.4"/><g><path fill="none" stroke="#348543" class="dcg-svg-curve" paint-order="fill stroke markers" d=" M 219.97928729199094 400 L 219.97928729199094 393.4 M 219.97928729199094 389.2 L 219.97928729199094 382.59999999999997 M 219.97928729199094 378.4 L 219.97928729199094 371.79999999999995 M 219.97928729199094 367.59999999999997 L 219.97928729199094 360.99999999999994 M 219.97928729199094 356.79999999999995 L 219.97928729199094 350.19999999999993 M 219.97928729199094 345.99999999999994 L 219.97928729199094 339.3999999999999 M 219.97928729199094 335.19999999999993 L 219.97928729199094 328.5999999999999 M 219.97928729199094 324.3999999999999 L 219.97928729199094 317.7999999999999 M 219.97928729199094 313.5999999999999 L 219.97928729199094 306.9999999999999 M 219.97928729199094 302.7999999999999 L 219.97928729199094 296.1999999999999 M 219.97928729199094 291.9999999999999 L 219.97928729199094 285.39999999999986 M 219.97928729199094 281.1999999999999 L 219.97928729199094 274.59999999999985 M 219.97928729199094 270.39999999999986 L 219.97928729199094 263.79999999999984 M 219.97928729199094 259.59999999999985 L 219.97928729199094 252.99999999999986 M 219.97928729199094 248.79999999999987 L 219.97928729199094 242.19999999999987 M 219.97928729199094 237.9999999999999 L 219.97928729199094 231.3999999999999 M 219.97928729199094 227.1999999999999 L 219.97928729199094 220.5999999999999 M 219.97928729199094 216.39999999999992 L 219.97928729199094 209.79999999999993 M 219.97928729199094 205.59999999999994 L 219.97928729199094 198.99999999999994 M 219.97928729199094 194.79999999999995 L 219.97928729199094 188.19999999999996 M 219.97928729199094 183.99999999999997 L 219.97928729199094 177.39999999999998 M 219.97928729199094 173.2 L 219.97928729199094 166.6 M 219.97928729199094 162.4 L 219.97928729199094 155.8 M 219.97928729199094 151.60000000000002 L 219.97928729199094 145.00000000000003 M 219.97928729199094 140.80000000000004 L 219.97928729199094 134.20000000000005 M 219.97928729199094 130.00000000000006 L 219.97928729199094 123.40000000000006 M 219.97928729199094 119.20000000000006 L 219.97928729199094 112.60000000000007 M 219.97928729199094 108.40000000000006 L 219.97928729199094 101.80000000000007 M 219.97928729199094 97.60000000000007 L 219.97928729199094 91.00000000000007 M 219.97928729199094 86.80000000000007 L 219.97928729199094 80.20000000000007 M 219.97928729199094 76.00000000000007 L 219.97928729199094 69.40000000000008 M 219.97928729199094 65.20000000000007 L 219.97928729199094 58.60000000000007 M 219.97928729199094 54.40000000000008 L 219.97928729199094 47.800000000000075 M 219.97928729199094 43.60000000000008 L 219.97928729199094 37.00000000000008 M 219.97928729199094 32.80000000000008 L 219.97928729199094 26.20000000000008 M 219.97928729199094 22.00000000000008 L 219.97928729199094 15.400000000000082 M 219.97928729199094 11.200000000000083 L 219.97928729199094 4.600000000000083 M 219.97928729199094 0.40000000000008384 L 219.97928729199094 0" stroke-linecap="round" stroke-linejoin="round" stroke-miterlimit="10" stroke-width="1.5" stroke-dasharray=""/></g></g><g id="sketch-929131ba"><title>2A</title><path fill="#6042a6" stroke="none" class="dcg-svg-point" paint-order="stroke fill markers" d=" M 223.72928729199094 306.6882794358845 A 3.75 3.75 0 1 1 223.7292854169911 306.68452943650954 Z"/></g></g><g id="labels-929131ba"><g transform="rotate(0,0,0) translate(111,107)"><g class="dcg-svg-label"><text fill="none" stroke="#FFF" font-family="arial, sans-serif" font-size="15.4px" font-style="normal" font-weight="400" text-decoration="normal" x="0" y="13.631658505249023" text-anchor="start" stroke-linecap="round" stroke-linejoin="round" stroke-miterlimit="2" stroke-width="3" stroke-dasharray="">A</text><text fill="rgb(45, 112, 179)" stroke="none" font-family="arial, sans-serif" font-size="15.4px" font-style="normal" font-weight="400" text-decoration="normal" x="0" y="13.631658505249023" text-anchor="start">A</text></g></g><g transform="rotate(0,0,0) translate(230,298)"><g class="dcg-svg-label"><text fill="none" stroke="#FFF" font-family="arial, sans-serif" font-size="15.4px" font-style="normal" font-weight="400" text-decoration="normal" x="0" y="13.631658505249023" text-anchor="start" stroke-linecap="round" stroke-linejoin="round" stroke-miterlimit="2" stroke-width="3" stroke-dasharray="">2A</text><text fill="rgb(96, 66, 166)" stroke="none" font-family="arial, sans-serif" font-size="15.4px" font-style="normal" font-weight="400" text-decoration="normal" x="0" y="13.631658505249023" text-anchor="start">2A</text></g></g></g><g id="labels-929131ba"/></g></svg>