<svg version="1.1" xmlns="http://www.w3.org/2000/svg" xmlns:xlink="http://www.w3.org/1999/xlink" width="800" height="800"><defs/><g transform="scale(2,2)"><g id="background-2ab7624e"><rect fill="white" stroke="none" x="0" y="0" width="400" height="400" class="dcg-svg-background"/></g><g id="graphpaper-2ab7624e"><g id="grid-2ab7624e"><g><path fill="none" stroke="rgb(0,0,0)" class="dcg-svg-minor-gridline" paint-order="fill stroke markers" d=" M 11.5 0 L 11.5 400" stroke-opacity="0.2" stroke-miterlimit="10" stroke-dasharray=""/><path fill="none" stroke="rgb(0,0,0)" class="dcg-svg-minor-gridline" paint-order="fill stroke markers" d=" M 43.5 0 L 43.5 400" stroke-opacity="0.2" stroke-miterlimit="10" stroke-dasharray=""/><path fill="none" stroke="rgb(0,0,0)" class="dcg-svg-minor-gridline" paint-order="fill stroke markers" d=" M 74.5 0 L 74.5 400" stroke-opacity="0.2" stroke-miterlimit="10" stroke-dasharray=""/><path fill="none" stroke="rgb(0,0,0)" class="dcg-svg-minor-gridline" paint-order="fill stroke markers" d=" M 105.5 0 L 105.5 400" stroke-opacity="0.2" stroke-miterlimit="10" stroke-dasharray=""/><path fill="none" stroke="rgb(0,0,0)" class="dcg-svg-minor-gridline" paint-order="fill stroke markers" d=" M 168.5 0 L 168.5 400" stroke-opacity="0.2" stroke-miterlimit="10" stroke-dasharray=""/><path fill="none" stroke="rgb(0,0,0)" class="dcg-svg-minor-gridline" paint-order="fill stroke markers" d=" M 200.5 0 L 200.5 400" stroke-opacity="0.2" stroke-miterlimit="10" stroke-dasharray=""/><path fill="none" stroke="rgb(0,0,0)" class="dcg-svg-minor-gridline" paint-order="fill stroke markers" d=" M 231.5 0 L 231.5 400" stroke-opacity="0.2" stroke-miterlimit="10" stroke-dasharray=""/><path fill="none" stroke="rgb(0,0,0)" class="dcg-svg-minor-gridline" paint-order="fill stroke markers" d=" M 262.5 0 L 262.5 400" stroke-opacity="0.2" stroke-miterlimit="10" stroke-dasharray=""/><path fill="none" stroke="rgb(0,0,0)" class="dcg-svg-minor-gridline" paint-order="fill stroke markers" d=" M 294.5 0 L 294.5 400" stroke-opacity="0.2" stroke-miterlimit="10" stroke-dasharray=""/><path fill="none" stroke="rgb(0,0,0)" class="dcg-svg-minor-gridline" paint-order="fill stroke markers" d=" M 325.5 0 L 325.5 400" stroke-opacity="0.2" stroke-miterlimit="10" stroke-dasharray=""/><path fill="none" stroke="rgb(0,0,0)" class="dcg-svg-minor-gridline" paint-order="fill stroke markers" d=" M 357.5 0 L 357.5 400" stroke-opacity="0.2" stroke-miterlimit="10" stroke-dasharray=""/><path fill="none" stroke="rgb(0,0,0)" class="dcg-svg-minor-gridline" paint-order="fill stroke markers" d=" M 388.5 0 L 388.5 400" stroke-opacity="0.2" stroke-miterlimit="10" stroke-dasharray=""/><path fill="none" stroke="rgb(0,0,0)" class="dcg-svg-minor-gridline" paint-order="fill stroke markers" d=" M 0 392.5 L 400 392.5" stroke-opacity="0.2" stroke-miterlimit="10" stroke-dasharray=""/><path fill="none" stroke="rgb(0,0,0)" class="dcg-svg-minor-gridline" paint-order="fill stroke markers" d=" M 0 368.5 L 400 368.5" stroke-opacity="0.2" stroke-miterlimit="10" stroke-dasharray=""/><path fill="none" stroke="rgb(0,0,0)" class="dcg-svg-minor-gridline" paint-order="fill stroke markers" d=" M 0 343.5 L 400 343.5" stroke-opacity="0.2" stroke-miterlimit="10" stroke-dasharray=""/><path fill="none" stroke="rgb(0,0,0)" class="dcg-svg-minor-gridline" paint-order="fill stroke markers" d=" M 0 319.5 L 400 319.5" stroke-opacity="0.2" stroke-miterlimit="10" stroke-dasharray=""/><path fill="none" stroke="rgb(0,0,0)" class="dcg-svg-minor-gridline" paint-order="fill stroke markers" d=" M 0 294.5 L 400 294.5" stroke-opacity="0.2" stroke-miterlimit="10" stroke-dasharray=""/><path fill="none" stroke="rgb(0,0,0)" class="dcg-svg-minor-gridline" paint-order="fill stroke markers" d=" M 0 270.5 L 400 270.5" stroke-opacity="0.2" stroke-miterlimit="10" stroke-dasharray=""/><path fill="none" stroke="rgb(0,0,0)" class="dcg-svg-minor-gridline" paint-order="fill stroke markers" d=" M 0 245.5 L 400 245.5" stroke-opacity="0.2" stroke-miterlimit="10" stroke-dasharray=""/><path fill="none" stroke="rgb(0,0,0)" class="dcg-svg-minor-gridline" paint-order="fill stroke markers" d=" M 0 221.5 L 400 221.5" stroke-opacity="0.2" stroke-miterlimit="10" stroke-dasharray=""/><path fill="none" stroke="rgb(0,0,0)" class="dcg-svg-minor-gridline" paint-order="fill stroke markers" d=" M 0 172.5 L 400 172.5" stroke-opacity="0.2" stroke-miterlimit="10" stroke-dasharray=""/><path fill="none" stroke="rgb(0,0,0)" class="dcg-svg-minor-gridline" paint-order="fill stroke markers" d=" M 0 147.5 L 400 147.5" stroke-opacity="0.2" stroke-miterlimit="10" stroke-dasharray=""/><path fill="none" stroke="rgb(0,0,0)" class="dcg-svg-minor-gridline" paint-order="fill stroke markers" d=" M 0 123.5 L 400 123.5" stroke-opacity="0.2" stroke-miterlimit="10" stroke-dasharray=""/><path fill="none" stroke="rgb(0,0,0)" class="dcg-svg-minor-gridline" paint-order="fill stroke markers" d=" M 0 98.5 L 400 98.5" stroke-opacity="0.2" stroke-miterlimit="10" stroke-dasharray=""/><path fill="none" stroke="rgb(0,0,0)" class="dcg-svg-minor-gridline" paint-order="fill stroke markers" d=" M 0 74.5 L 400 74.5" stroke-opacity="0.2" stroke-miterlimit="10" stroke-dasharray=""/><path fill="none" stroke="rgb(0,0,0)" class="dcg-svg-minor-gridline" paint-order="fill stroke markers" d=" M 0 49.5 L 400 49.5" stroke-opacity="0.2" stroke-miterlimit="10" stroke-dasharray=""/><path fill="none" stroke="rgb(0,0,0)" class="dcg-svg-minor-gridline" paint-order="fill stroke markers" d=" M 0 24.5 L 400 24.5" stroke-opacity="0.2" stroke-miterlimit="10" stroke-dasharray=""/><path fill="none" stroke="rgb(0,0,0)" class="dcg-svg-major-gridline" paint-order="fill stroke markers" d=" M 294.5 0 L 294.5 400" stroke-opacity="0.2500000000000001" stroke-miterlimit="10" stroke-dasharray=""/><path fill="none" stroke="rgb(0,0,0)" class="dcg-svg-major-gridline" paint-order="fill stroke markers" d=" M 0 319.5 L 400 319.5" stroke-opacity="0.2500000000000001" stroke-miterlimit="10" stroke-dasharray=""/><path fill="none" stroke="rgb(0,0,0)" class="dcg-svg-major-gridline" paint-order="fill stroke markers" d=" M 0 74.5 L 400 74.5" stroke-opacity="0.2500000000000001" stroke-miterlimit="10" stroke-dasharray=""/></g></g><g id="axis-2ab7624e"><g id="yaxis-2ab7624e"><title>Y axis</title><g><path fill="none" stroke="rgb(0,0,0)" class="dcg-svg-axis-line" paint-order="fill stroke markers" d=" M 137 3 L 137 400" stroke-opacity="0.9" stroke-miterlimit="10" stroke-width="1.5" stroke-dasharray=""/><g class="dcg-svg-axis-line"><path fill="rgb(0,0,0)" stroke="rgb(0,0,0)" class="dcg-svg-axis-line" paint-order="stroke fill markers" d=" M 137 1.5 L 140.10582854123024 13.09110991546882 L 133.89417145876976 13.09110991546882 L 137 1.5 L 140.10582854123024 13.09110991546882" stroke-opacity="0.9" stroke-linejoin="round" stroke-miterlimit="10" stroke-width="1.5" stroke-dasharray="" fill-opacity="0.9"/></g></g></g><g id="xaxis-2ab7624e"><title>X axis</title><g><path fill="none" stroke="rgb(0,0,0)" class="dcg-svg-axis-line" paint-order="fill stroke markers" d=" M 0 197 L 397 197" stroke-opacity="0.9" stroke-miterlimit="10" stroke-width="1.5" stroke-dasharray=""/><g class="dcg-svg-axis-line"><path fill="rgb(0,0,0)" stroke="rgb(0,0,0)" class="dcg-svg-axis-line" paint-order="stroke fill markers" d=" M 398.5 197 L 386.9088900845312 200.10582854123027 L 386.9088900845312 193.89417145876976 L 398.5 197 L 386.9088900845312 200.10582854123027" stroke-opacity="0.9" stroke-linejoin="round" stroke-miterlimit="10" stroke-width="1.5" stroke-dasharray="" fill-opacity="0.9"/></g></g></g><g><g class="dcg-svg-axis-value"><text fill="none" stroke="#ffffff" font-family="Arial" font-size="14px" font-style="normal" font-weight="normal" text-decoration="normal" x="128.47702998323405" y="212.49011926830238" text-anchor="middle" stroke-miterlimit="2" stroke-width="3" stroke-dasharray="">0</text><text fill="#000000" stroke="none" font-family="Arial" font-size="14px" font-style="normal" font-weight="normal" text-decoration="normal" x="128.47702998323405" y="212.49011926830238" text-anchor="middle">0</text></g><g class="dcg-svg-axis-value"><text fill="none" stroke="#ffffff" font-family="Arial" font-size="14px" font-style="normal" font-weight="normal" text-decoration="normal" x="294.3030833029549" y="212.49011926830238" text-anchor="middle" stroke-miterlimit="2" stroke-width="3" stroke-dasharray="">5</text><text fill="#000000" stroke="none" font-family="Arial" font-size="14px" font-style="normal" font-weight="normal" text-decoration="normal" x="294.3030833029549" y="212.49011926830238" text-anchor="middle">5</text></g><g class="dcg-svg-axis-value"><text fill="none" stroke="#ffffff" font-family="Arial" font-size="14px" font-style="normal" font-weight="normal" text-decoration="normal" x="126.14597529573405" y="323.12356754034823" text-anchor="middle" stroke-miterlimit="2" stroke-width="3" stroke-dasharray="">-5</text><text fill="#000000" stroke="none" font-family="Arial" font-size="14px" font-style="normal" font-weight="normal" text-decoration="normal" x="126.14597529573405" y="323.12356754034823" text-anchor="middle">-5</text></g><g class="dcg-svg-axis-value"><text fill="none" stroke="#ffffff" font-family="Arial" font-size="14px" font-style="normal" font-weight="normal" text-decoration="normal" x="128.47702998323405" y="77.85667099625654" text-anchor="middle" stroke-miterlimit="2" stroke-width="3" stroke-dasharray="">5</text><text fill="#000000" stroke="none" font-family="Arial" font-size="14px" font-style="normal" font-weight="normal" text-decoration="normal" x="128.47702998323405" y="77.85667099625654" text-anchor="middle">5</text></g></g></g></g><g id="expressions-2ab7624e"><g id="sketch-2ab7624e"><title>Expression 1</title><path fill="#c74440" stroke="none" paint-order="stroke fill markers" d="" fill-opacity="0.4"/><g><path fill="none" stroke="#c74440" class="dcg-svg-curve" paint-order="fill stroke markers" d=" M 77.32969553500612 196.68212030202506 L 77.32969553500612 196.68212030202506 L 77.44140625 201.52573922128457 L 77.83203125 206.91986870790828 L 78.41796875 211.6771696858071 L 79.19921875 216.20732694201752 L 80.17578125 220.57541682660948 L 81.34765625 224.79051009070733 L 82.71484375 228.84526427275094 L 84.1796875 232.50228548235788 L 85.83984375000001 236.0364440378492 L 87.6953125 239.41504774871714 L 89.74609375 242.61077304737375 L 92.08984375000001 245.7197090832448 L 94.53125 248.46414223827946 L 97.0703125 250.88122764866227 L 99.70703125 252.99807579205512 L 102.44140625 254.83569091703234 L 105.2734375 256.4114513318888 L 108.20312500000001 257.7408041411367 L 111.32812500000001 258.8697289185169 L 114.64843750000001 259.79062470646716 L 118.26171875000001 260.5191523951101 L 122.26562500000001 261.05498043004167 L 126.85546875000001 261.3991414643193 L 132.71484375 261.55851515229466 L 149.609375 261.8479102894958 L 154.19921875 262.28426500322024 L 158.30078125 262.9339856280927 L 162.109375 263.8050778757377 L 165.72265625 264.9048163107256 L 169.23828125 266.25643597430314 L 172.65625 267.85582902716453 L 176.07421875 269.75009876347804 L 179.4921875 271.94794668451163 L 183.0078125 274.5297267559591 L 186.62109375 277.522698208415 L 190.4296875 281.04553290833104 L 194.43359375000003 285.1468555786199 L 198.63281250000003 289.8715505540637 L 203.125 295.38490500744524 L 207.91015625 301.75275794748876 L 212.98828125000003 309.035966005993 L 218.26171875 317.1353408364376 L 223.73046875 326.07297939769876 L 229.39453125 335.8684866020001 L 235.25390625 346.5398294001016 L 241.40625000000003 358.29484163864316 L 247.8515625 371.1752871579422 L 254.49218750000003 385.0141143997098 L 261.42578125 400.0425524295081 L 263.8515822096939 405.5" stroke-linecap="round" stroke-linejoin="round" stroke-miterlimit="10" stroke-width="2.5" stroke-dasharray=""/></g><path fill="#c74440" stroke="none" paint-order="stroke fill markers" d="" fill-opacity="0.4"/><g><path fill="none" stroke="#c74440" class="dcg-svg-curve" paint-order="fill stroke markers" d=" M 77.32969553500612 196.68211823457972 L 77.32969553500612 196.68211823457972 L 77.44140625 191.8384993153202 L 77.83203125 186.4443698286965 L 78.41796875 181.68706885079766 L 79.19921875 177.15691159458726 L 80.17578125 172.7888217099953 L 81.34765625 168.57372844589744 L 82.71484375 164.51897426385383 L 84.1796875 160.8619530542469 L 85.83984375000001 157.32779449875557 L 87.6953125 153.94919078788766 L 89.74609375 150.75346548923102 L 92.08984375000001 147.64452945335998 L 94.53125 144.9000962983253 L 97.0703125 142.48301088794247 L 99.70703125 140.36616274454968 L 102.44140625 138.5285476195724 L 105.2734375 136.95278720471595 L 108.20312500000001 135.62343439546805 L 111.32812500000001 134.49450961808782 L 114.64843750000001 133.57361383013762 L 118.26171875000001 132.8450861414947 L 122.26562500000001 132.3092581065631 L 126.85546875000001 131.96509707228546 L 132.71484375 131.8057233843101 L 149.609375 131.51632824710896 L 154.19921875 131.07997353338453 L 158.30078125 130.43025290851207 L 162.109375 129.55916066086706 L 165.72265625 128.45942222587917 L 169.23828125 127.10780256230167 L 172.65625 125.50840950944021 L 176.07421875 123.61413977312671 L 179.4921875 121.41629185209315 L 183.0078125 118.8345117806457 L 186.62109375 115.84154032818975 L 190.4296875 112.31870562827372 L 194.43359375000003 108.21738295798485 L 198.63281250000003 103.49268798254106 L 203.125 97.97933352915955 L 207.91015625 91.61148058911598 L 212.98828125000003 84.32827253061177 L 218.26171875 76.22889770016717 L 223.73046875 67.29125913890601 L 229.39453125 57.49575193460467 L 235.25390625 46.824409136503164 L 241.40625000000003 35.06939689796164 L 247.8515625 22.18895137866255 L 254.49218750000003 8.350124136894976 L 260.8821485832403 -5.5" stroke-linecap="round" stroke-linejoin="round" stroke-miterlimit="10" stroke-width="2.5" stroke-dasharray=""/></g></g><g id="sketch-2ab7624e"><title>Expression 2</title><path fill="#2d70b3" stroke="none" paint-order="stroke fill markers" d="" fill-opacity="0.4"/><g><path fill="none" stroke="#2d70b3" class="dcg-svg-curve" paint-order="fill stroke markers" d=" M 0 230.44830644301686 L 0 230.44830644301686 L 301.94105286133487 -5.5" stroke-linecap="round" stroke-linejoin="round" stroke-miterlimit="10" stroke-width="2.5" stroke-dasharray=""/></g></g><g id="sketch-2ab7624e"><title>A</title><path fill="#348543" stroke="none" class="dcg-svg-point" paint-order="stroke fill markers" d=" M 86.7682219040253 166.3072857326959 A 4.6875 4.6875 0 1 1 86.7682195602755 166.30259823347714 Z"/></g><g id="sketch-2ab7624e"><title>B</title><path fill="#2d70b3" stroke="none" class="dcg-svg-point" paint-order="stroke fill markers" d=" M 130.65390396242978 132.01333245721133 A 4.6875 4.6875 0 1 1 130.65390161867998 132.00864495799257 Z"/></g><g id="sketch-2ab7624e"><title>Expression 5</title><path fill="#c74440" stroke="none" class="dcg-svg-point" paint-order="stroke fill markers" d=" M 240.13726068469123 46.458843070908216 A 4.6875 4.6875 0 1 1 240.13725834094143 46.45415557168946 Z"/></g><g id="sketch-2ab7624e"><title>Expression 6</title><path fill="#348543" stroke="none" paint-order="stroke fill markers" d="" fill-opacity="0.4"/><g><path fill="none" stroke="#348543" class="dcg-svg-curve" paint-order="fill stroke markers" d=" M 235.44976068469123 400 L 235.44976068469123 393.4 M 235.44976068469123 389.2 L 235.44976068469123 382.59999999999997 M 235.44976068469123 378.4 L 235.44976068469123 371.79999999999995 M 235.44976068469123 367.59999999999997 L 235.44976068469123 360.99999999999994 M 235.44976068469123 356.79999999999995 L 235.44976068469123 350.19999999999993 M 235.44976068469123 345.99999999999994 L 235.44976068469123 339.3999999999999 M 235.44976068469123 335.19999999999993 L 235.44976068469123 328.5999999999999 M 235.44976068469123 324.3999999999999 L 235.44976068469123 317.7999999999999 M 235.44976068469123 313.5999999999999 L 235.44976068469123 306.9999999999999 M 235.44976068469123 302.7999999999999 L 235.44976068469123 296.1999999999999 M 235.44976068469123 291.9999999999999 L 235.44976068469123 285.39999999999986 M 235.44976068469123 281.1999999999999 L 235.44976068469123 274.59999999999985 M 235.44976068469123 270.39999999999986 L 235.44976068469123 263.79999999999984 M 235.44976068469123 259.59999999999985 L 235.44976068469123 252.99999999999986 M 235.44976068469123 248.79999999999987 L 235.44976068469123 242.19999999999987 M 235.44976068469123 237.9999999999999 L 235.44976068469123 231.3999999999999 M 235.44976068469123 227.1999999999999 L 235.44976068469123 220.5999999999999 M 235.44976068469123 216.39999999999992 L 235.44976068469123 209.79999999999993 M 235.44976068469123 205.59999999999994 L 235.44976068469123 198.99999999999994 M 235.44976068469123 194.79999999999995 L 235.44976068469123 188.19999999999996 M 235.44976068469123 183.99999999999997 L 235.44976068469123 177.39999999999998 M 235.44976068469123 173.2 L 235.44976068469123 166.6 M 235.44976068469123 162.4 L 235.44976068469123 155.8 M 235.44976068469123 151.60000000000002 L 235.44976068469123 145.00000000000003 M 235.44976068469123 140.80000000000004 L 235.44976068469123 134.20000000000005 M 235.44976068469123 130.00000000000006 L 235.44976068469123 123.40000000000006 M 235.44976068469123 119.20000000000006 L 235.44976068469123 112.60000000000007 M 235.44976068469123 108.40000000000006 L 235.44976068469123 101.80000000000007 M 235.44976068469123 97.60000000000007 L 235.44976068469123 91.00000000000007 M 235.44976068469123 86.80000000000007 L 235.44976068469123 80.20000000000007 M 235.44976068469123 76.00000000000007 L 235.44976068469123 69.40000000000008 M 235.44976068469123 65.20000000000007 L 235.44976068469123 58.60000000000007 M 235.44976068469123 54.40000000000008 L 235.44976068469123 47.800000000000075 M 235.44976068469123 43.60000000000008 L 235.44976068469123 37.00000000000008 M 235.44976068469123 32.80000000000008 L 235.44976068469123 26.20000000000008 M 235.44976068469123 22.00000000000008 L 235.44976068469123 15.400000000000082 M 235.44976068469123 11.200000000000083 L 235.44976068469123 4.600000000000083 M 235.44976068469123 0.40000000000008384 L 235.44976068469123 0" stroke-linecap="round" stroke-linejoin="round" stroke-miterlimit="10" stroke-width="1.5" stroke-dasharray=""/></g></g><g id="sketch-2ab7624e"><title>C</title><path fill="#6042a6" stroke="none" class="dcg-svg-point" paint-order="stroke fill markers" d=" M 240.13726068469123 346.90564073259316 A 4.6875 4.6875 0 1 1 240.13725834094143 346.9009532333744 Z"/></g></g><g id="labels-2ab7624e"><g transform="rotate(0,0,0) translate(88,172)"><g class="dcg-svg-label"><text fill="none" stroke="#FFF" font-family="arial, sans-serif" font-size="15.4px" font-style="normal" font-weight="400" text-decoration="normal" x="0" y="13.631658505249023" text-anchor="start" stroke-linecap="round" stroke-linejoin="round" stroke-miterlimit="2" stroke-width="3" stroke-dasharray="">A</text><text fill="rgb(52, 133, 67)" stroke="none" font-family="arial, sans-serif" font-size="15.4px" font-style="normal" font-weight="400" text-decoration="normal" x="0" y="13.631658505249023" text-anchor="start">A</text></g></g><g transform="rotate(0,0,0) translate(110,108)"><g class="dcg-svg-label"><text fill="none" stroke="#FFF" font-family="arial, sans-serif" font-size="15.4px" font-style="normal" font-weight="400" text-decoration="normal" x="0" y="13.631658505249023" text-anchor="start" stroke-linecap="round" stroke-linejoin="round" stroke-miterlimit="2" stroke-width="3" stroke-dasharray="">B</text><text fill="rgb(45, 112, 179)" stroke="none" font-family="arial, sans-serif" font-size="15.4px" font-style="normal" font-weight="400" text-decoration="normal" x="0" y="13.631658505249023" text-anchor="start">B</text></g></g><g transform="rotate(0,0,0) translate(241,323)"><g class="dcg-svg-label"><text fill="none" stroke="#FFF" font-family="arial, sans-serif" font-size="15.4px" font-style="normal" font-weight="400" text-decoration="normal" x="0" y="13.631658505249023" text-anchor="start" stroke-linecap="round" stroke-linejoin="round" stroke-miterlimit="2" stroke-width="3" stroke-dasharray="">C</text><text fill="rgb(96, 66, 166)" stroke="none" font-family="arial, sans-serif" font-size="15.4px" font-style="normal" font-weight="400" text-decoration="normal" x="0" y="13.631658505249023" text-anchor="start">C</text></g></g></g><g id="labels-2ab7624e"/></g></svg>