<svg version="1.1" xmlns="http://www.w3.org/2000/svg" xmlns:xlink="http://www.w3.org/1999/xlink" width="800" height="800"><defs/><g transform="scale(2,2)"><g id="background-c82123b1"><rect fill="white" stroke="none" x="0" y="0" width="400" height="400" class="dcg-svg-background"/></g><g id="graphpaper-c82123b1"><g id="grid-c82123b1"><g><path fill="none" stroke="rgb(0,0,0)" class="dcg-svg-minor-gridline" paint-order="fill stroke markers" d=" M 36.5 0 L 36.5 400" stroke-opacity="0.2" stroke-miterlimit="10" stroke-dasharray=""/><path fill="none" stroke="rgb(0,0,0)" class="dcg-svg-minor-gridline" paint-order="fill stroke markers" d=" M 74.5 0 L 74.5 400" stroke-opacity="0.2" stroke-miterlimit="10" stroke-dasharray=""/><path fill="none" stroke="rgb(0,0,0)" class="dcg-svg-minor-gridline" paint-order="fill stroke markers" d=" M 111.5 0 L 111.5 400" stroke-opacity="0.2" stroke-miterlimit="10" stroke-dasharray=""/><path fill="none" stroke="rgb(0,0,0)" class="dcg-svg-minor-gridline" paint-order="fill stroke markers" d=" M 187.5 0 L 187.5 400" stroke-opacity="0.2" stroke-miterlimit="10" stroke-dasharray=""/><path fill="none" stroke="rgb(0,0,0)" class="dcg-svg-minor-gridline" paint-order="fill stroke markers" d=" M 224.5 0 L 224.5 400" stroke-opacity="0.2" stroke-miterlimit="10" stroke-dasharray=""/><path fill="none" stroke="rgb(0,0,0)" class="dcg-svg-minor-gridline" paint-order="fill stroke markers" d=" M 262.5 0 L 262.5 400" stroke-opacity="0.2" stroke-miterlimit="10" stroke-dasharray=""/><path fill="none" stroke="rgb(0,0,0)" class="dcg-svg-minor-gridline" paint-order="fill stroke markers" d=" M 300.5 0 L 300.5 400" stroke-opacity="0.2" stroke-miterlimit="10" stroke-dasharray=""/><path fill="none" stroke="rgb(0,0,0)" class="dcg-svg-minor-gridline" paint-order="fill stroke markers" d=" M 337.5 0 L 337.5 400" stroke-opacity="0.2" stroke-miterlimit="10" stroke-dasharray=""/><path fill="none" stroke="rgb(0,0,0)" class="dcg-svg-minor-gridline" paint-order="fill stroke markers" d=" M 375.5 0 L 375.5 400" stroke-opacity="0.2" stroke-miterlimit="10" stroke-dasharray=""/><path fill="none" stroke="rgb(0,0,0)" class="dcg-svg-minor-gridline" paint-order="fill stroke markers" d=" M 0 371.5 L 400 371.5" stroke-opacity="0.2" stroke-miterlimit="10" stroke-dasharray=""/><path fill="none" stroke="rgb(0,0,0)" class="dcg-svg-minor-gridline" paint-order="fill stroke markers" d=" M 0 342.5 L 400 342.5" stroke-opacity="0.2" stroke-miterlimit="10" stroke-dasharray=""/><path fill="none" stroke="rgb(0,0,0)" class="dcg-svg-minor-gridline" paint-order="fill stroke markers" d=" M 0 313.5 L 400 313.5" stroke-opacity="0.2" stroke-miterlimit="10" stroke-dasharray=""/><path fill="none" stroke="rgb(0,0,0)" class="dcg-svg-minor-gridline" paint-order="fill stroke markers" d=" M 0 283.5 L 400 283.5" stroke-opacity="0.2" stroke-miterlimit="10" stroke-dasharray=""/><path fill="none" stroke="rgb(0,0,0)" class="dcg-svg-minor-gridline" paint-order="fill stroke markers" d=" M 0 254.5 L 400 254.5" stroke-opacity="0.2" stroke-miterlimit="10" stroke-dasharray=""/><path fill="none" stroke="rgb(0,0,0)" class="dcg-svg-minor-gridline" paint-order="fill stroke markers" d=" M 0 224.5 L 400 224.5" stroke-opacity="0.2" stroke-miterlimit="10" stroke-dasharray=""/><path fill="none" stroke="rgb(0,0,0)" class="dcg-svg-minor-gridline" paint-order="fill stroke markers" d=" M 0 165.5 L 400 165.5" stroke-opacity="0.2" stroke-miterlimit="10" stroke-dasharray=""/><path fill="none" stroke="rgb(0,0,0)" class="dcg-svg-minor-gridline" paint-order="fill stroke markers" d=" M 0 136.5 L 400 136.5" stroke-opacity="0.2" stroke-miterlimit="10" stroke-dasharray=""/><path fill="none" stroke="rgb(0,0,0)" class="dcg-svg-minor-gridline" paint-order="fill stroke markers" d=" M 0 107.5 L 400 107.5" stroke-opacity="0.2" stroke-miterlimit="10" stroke-dasharray=""/><path fill="none" stroke="rgb(0,0,0)" class="dcg-svg-minor-gridline" paint-order="fill stroke markers" d=" M 0 77.5 L 400 77.5" stroke-opacity="0.2" stroke-miterlimit="10" stroke-dasharray=""/><path fill="none" stroke="rgb(0,0,0)" class="dcg-svg-minor-gridline" paint-order="fill stroke markers" d=" M 0 48.5 L 400 48.5" stroke-opacity="0.2" stroke-miterlimit="10" stroke-dasharray=""/><path fill="none" stroke="rgb(0,0,0)" class="dcg-svg-minor-gridline" paint-order="fill stroke markers" d=" M 0 18.5 L 400 18.5" stroke-opacity="0.2" stroke-miterlimit="10" stroke-dasharray=""/><path fill="none" stroke="rgb(0,0,0)" class="dcg-svg-major-gridline" paint-order="fill stroke markers" d=" M 337.5 0 L 337.5 400" stroke-opacity="0.2500000000000001" stroke-miterlimit="10" stroke-dasharray=""/><path fill="none" stroke="rgb(0,0,0)" class="dcg-svg-major-gridline" paint-order="fill stroke markers" d=" M 0 342.5 L 400 342.5" stroke-opacity="0.2500000000000001" stroke-miterlimit="10" stroke-dasharray=""/><path fill="none" stroke="rgb(0,0,0)" class="dcg-svg-major-gridline" paint-order="fill stroke markers" d=" M 0 48.5 L 400 48.5" stroke-opacity="0.2500000000000001" stroke-miterlimit="10" stroke-dasharray=""/></g></g><g id="axis-c82123b1"><g id="yaxis-c82123b1"><title>Y axis</title><g><path fill="none" stroke="rgb(0,0,0)" class="dcg-svg-axis-line" paint-order="fill stroke markers" d=" M 149 3 L 149 400" stroke-opacity="0.9" stroke-miterlimit="10" stroke-width="1.5" stroke-dasharray=""/><g class="dcg-svg-axis-line"><path fill="rgb(0,0,0)" stroke="rgb(0,0,0)" class="dcg-svg-axis-line" paint-order="stroke fill markers" d=" M 149 1.5 L 152.10582854123024 13.09110991546882 L 145.89417145876976 13.09110991546882 L 149 1.5 L 152.10582854123024 13.09110991546882" stroke-opacity="0.9" stroke-linejoin="round" stroke-miterlimit="10" stroke-width="1.5" stroke-dasharray="" fill-opacity="0.9"/></g></g></g><g id="xaxis-c82123b1"><title>X axis</title><g><path fill="none" stroke="rgb(0,0,0)" class="dcg-svg-axis-line" paint-order="fill stroke markers" d=" M 0 195 L 397 195" stroke-opacity="0.9" stroke-miterlimit="10" stroke-width="1.5" stroke-dasharray=""/><g class="dcg-svg-axis-line"><path fill="rgb(0,0,0)" stroke="rgb(0,0,0)" class="dcg-svg-axis-line" paint-order="stroke fill markers" d=" M 398.5 195 L 386.9088900845312 198.10582854123027 L 386.9088900845312 191.89417145876976 L 398.5 195 L 386.9088900845312 198.10582854123027" stroke-opacity="0.9" stroke-linejoin="round" stroke-miterlimit="10" stroke-width="1.5" stroke-dasharray="" fill-opacity="0.9"/></g></g></g><g><g class="dcg-svg-axis-value"><text fill="none" stroke="#ffffff" font-family="Arial" font-size="14px" font-style="normal" font-weight="normal" text-decoration="normal" x="140.60439627496942" y="211.17897522165316" text-anchor="middle" stroke-miterlimit="2" stroke-width="3" stroke-dasharray="">0</text><text fill="#000000" stroke="none" font-family="Arial" font-size="14px" font-style="normal" font-weight="normal" text-decoration="normal" x="140.60439627496942" y="211.17897522165316" text-anchor="middle">0</text></g><g class="dcg-svg-axis-value"><text fill="none" stroke="#ffffff" font-family="Arial" font-size="14px" font-style="normal" font-weight="normal" text-decoration="normal" x="337.7327567988664" y="211.17897522165316" text-anchor="middle" stroke-miterlimit="2" stroke-width="3" stroke-dasharray="">5</text><text fill="#000000" stroke="none" font-family="Arial" font-size="14px" font-style="normal" font-weight="normal" text-decoration="normal" x="337.7327567988664" y="211.17897522165316" text-anchor="middle">5</text></g><g class="dcg-svg-axis-value"><text fill="none" stroke="#ffffff" font-family="Arial" font-size="14px" font-style="normal" font-weight="normal" text-decoration="normal" x="138.27334158746942" y="346.2732455733528" text-anchor="middle" stroke-miterlimit="2" stroke-width="3" stroke-dasharray="">-5</text><text fill="#000000" stroke="none" font-family="Arial" font-size="14px" font-style="normal" font-weight="normal" text-decoration="normal" x="138.27334158746942" y="346.2732455733528" text-anchor="middle">-5</text></g><g class="dcg-svg-axis-value"><text fill="none" stroke="#ffffff" font-family="Arial" font-size="14px" font-style="normal" font-weight="normal" text-decoration="normal" x="140.60439627496942" y="52.084704869953505" text-anchor="middle" stroke-miterlimit="2" stroke-width="3" stroke-dasharray="">5</text><text fill="#000000" stroke="none" font-family="Arial" font-size="14px" font-style="normal" font-weight="normal" text-decoration="normal" x="140.60439627496942" y="52.084704869953505" text-anchor="middle">5</text></g></g></g></g><g id="expressions-c82123b1"><g id="sketch-c82123b1"><title>Expression 1</title><path fill="#c74440" stroke="none" paint-order="stroke fill markers" d="" fill-opacity="0.4"/><g><path fill="none" stroke="#c74440" class="dcg-svg-curve" paint-order="fill stroke markers" d=" M 77.48122991802364 195.37097646156516 L 77.48122991802364 195.37097646156516 L 77.63671875 201.6284742847462 L 78.02734375 207.06632014853665 L 78.61328125000001 212.14089151615232 L 79.39453125 217.05386962821203 L 80.37109375000001 221.83689275660396 L 81.54296875 226.48913900956344 L 82.91015625 230.99985100395128 L 84.47265625000001 235.35455290642938 L 86.1328125 239.32112183867372 L 87.98828125 243.15820976929496 L 90.0390625 246.83674473663174 L 92.28515625 250.33196038347023 L 94.82421875000001 253.74431448471654 L 97.55859375 256.8983334001056 L 100.29296875 259.6048547137167 L 103.125 262.01032670771013 L 106.0546875 264.1343898487504 L 109.08203125 265.9932339846946 L 112.20703125 267.60100454098256 L 115.52734375 269.00819631693173 L 119.04296875 270.2049764672207 L 122.75390625 271.18673835522145 L 126.7578125 271.9709551087532 L 131.15234375 272.5599639120891 L 136.1328125 272.95681928828486 L 142.1875 273.1652358657823 L 152.734375 273.20948070400755 L 161.03515625 273.3658161470835 L 166.6015625 273.72559216279643 L 171.38671875 274.291196002216 L 175.68359375 275.0549581282917 L 179.78515625 276.049045755271 L 183.69140625 277.2658881141422 L 187.5 278.72864029303 L 191.2109375 280.43320927155355 L 194.921875 282.42597123475775 L 198.73046875 284.7797856853729 L 202.5390625 287.4513755139863 L 206.4453125 290.5231048810451 L 210.546875 294.1076572661765 L 214.74609375 298.1527321487756 L 219.140625 302.7822788295115 L 223.828125 308.15233171433647 L 228.80859375 314.32632049568406 L 234.08203125 321.3639107658723 L 239.55078125 329.1764124808261 L 245.21484375 337.78789274988367 L 251.07421874999997 347.2195412003035 L 257.2265625 357.66019842265615 L 263.57421875 368.97372357982147 L 270.21484375 381.36188408154214 L 277.05078125 394.6692337127615 L 282.396923874174 405.5" stroke-linecap="round" stroke-linejoin="round" stroke-miterlimit="10" stroke-width="2.5" stroke-dasharray=""/></g><path fill="#c74440" stroke="none" paint-order="stroke fill markers" d="" fill-opacity="0.4"/><g><path fill="none" stroke="#c74440" class="dcg-svg-curve" paint-order="fill stroke markers" d=" M 77.48122991802364 195.37097398174117 L 77.48122991802364 195.37097398174117 L 77.63671875 189.11347615856013 L 78.02734375 183.6756302947697 L 78.61328125000001 178.601058927154 L 79.39453125 173.68808081509434 L 80.37109375000001 168.90505768670238 L 81.54296875 164.2528114337429 L 82.91015625 159.74209943935506 L 84.47265625000001 155.38739753687696 L 86.1328125 151.42082860463262 L 87.98828125 147.58374067401138 L 90.0390625 143.90520570667456 L 92.28515625 140.4099900598361 L 94.82421875000001 136.9976359585898 L 97.55859375 133.8436170432007 L 100.29296875 131.13709572958965 L 103.125 128.7316237355962 L 106.0546875 126.60756059455593 L 109.08203125 124.74871645861172 L 112.20703125 123.1409459023238 L 115.52734375 121.73375412637463 L 119.04296875 120.53697397608563 L 122.75390625 119.55521208808487 L 126.7578125 118.77099533455315 L 131.15234375 118.18198653121728 L 136.1328125 117.78513115502147 L 142.1875 117.57671457752406 L 152.734375 117.5324697392988 L 161.03515625 117.37613429622287 L 166.6015625 117.01635828050989 L 171.38671875 116.45075444109033 L 175.68359375 115.68699231501465 L 179.78515625 114.69290468803538 L 183.69140625 113.47606232916418 L 187.5 112.01331015027628 L 191.2109375 110.30874117175281 L 194.921875 108.31597920854854 L 198.73046875 105.96216475793348 L 202.5390625 103.29057492932004 L 206.4453125 100.21884556226127 L 210.546875 96.63429317712983 L 214.74609375 92.58921829453074 L 219.140625 87.95967161379482 L 223.828125 82.58961872896987 L 228.80859375 76.41562994762225 L 234.08203125 69.37803967743406 L 239.55078125 61.56553796248025 L 245.21484375 52.95405769342264 L 251.07421874999997 43.52240924300281 L 257.2265625 33.081752020650185 L 263.57421875 21.76822686348484 L 270.21484375 9.38006636176425 L 277.05078125 -3.927283269455188 L 277.8270853198998 -5.5" stroke-linecap="round" stroke-linejoin="round" stroke-miterlimit="10" stroke-width="2.5" stroke-dasharray=""/></g></g></g><g id="labels-c82123b1"/><g id="labels-c82123b1"/></g></svg>